
<svg width="980" height="659" viewBox="0 0 980 659" fill="none" xmlns="http://www.w3.org/2000/svg">
<path d="M0 726L213.412 719.5L1011.08 703.223C1014.37 703.156 1015.59 698.863 1012.82 697.074V697.074C1011.87 696.459 1011.3 695.402 1011.3 694.267V497.205L1008.86 299.387L1021.64 8.20282C1021.84 3.7319 1018.26 0 1013.79 0V0C1010.78 0 1008.03 1.72291 1006.72 4.43516L917.173 189.466C904.171 216.333 885.436 240.022 862.289 258.865V258.865C853.94 265.662 845.067 271.787 835.753 277.184L804.62 295.223C786.476 305.736 770.042 318.957 755.886 334.427L743.618 347.834C716.733 377.215 701.823 415.597 701.823 455.423V455.423C701.823 490.126 690.496 523.881 669.562 551.559L662.409 561.017V561.017C635.533 593.153 599.135 615.909 558.475 625.996L491.953 642.5L0 726Z" fill="url(#paint0_linear_107_11)"/>
<defs>
<linearGradient id="paint0_linear_107_11" x1="-897.116" y1="976.329" x2="1983.22" y2="1008.13" gradientUnits="userSpaceOnUse">
<stop offset="0.38249" stop-color="#71C9F5"/>
<stop offset="0.421566" stop-color="#3E7B9A"/>
<stop offset="0.630807" stop-color="#003550"/>
</linearGradient>
</defs>
</svg>
