<svg width="960" height="610" viewBox="0 0 960 610" fill="none" xmlns="http://www.w3.org/2000/svg">
<path d="M0 -116L213.412 -109.5L1011.08 -93.2228C1014.37 -93.1556 1015.59 -88.8626 1012.82 -87.0743V-87.0743C1011.87 -86.4588 1011.3 -85.4016 1011.3 -84.267V112.795L1008.86 310.613L1021.64 601.797C1021.84 606.268 1018.26 610 1013.79 610V610C1010.78 610 1008.03 608.277 1006.72 605.565L917.173 420.534C904.171 393.667 885.436 369.978 862.289 351.135V351.135C853.94 344.338 845.067 338.213 835.753 332.816L804.62 314.777C786.476 304.264 770.042 291.043 755.886 275.573L743.618 262.166C716.733 232.785 701.823 194.403 701.823 154.577V154.577C701.823 119.874 690.496 86.1191 669.562 58.4406L662.409 48.9826V48.9826C635.533 16.8474 599.135 -5.9087 558.475 -15.9962L491.953 -32.5L0 -116Z" fill="url(#paint0_linear_54_12)"/>
<defs>
<linearGradient id="paint0_linear_54_12" x1="-897.116" y1="-366.329" x2="1983.22" y2="-398.128" gradientUnits="userSpaceOnUse">
<stop offset="0.38249" stop-color="#71C9F5"/>
<stop offset="0.421566" stop-color="#003550"/>
<stop offset="0.630807" stop-color="#003550"/>
</linearGradient>
</defs>
</svg>