<svg width="571" height="622" viewBox="0 0 571 622" fill="none" xmlns="http://www.w3.org/2000/svg">
<path d="M-2.92161 90.8174L-2.92162 5.62635C-2.92162 2.5654 -5.40304 0.0840254 -8.46399 0.0840808V0.0840808V0.0840808C30.6673 0.0840149 69.0256 10.9804 102.313 31.5522L131.048 49.3105C206.77 96.1075 260.347 171.541 279.591 258.451L295.708 331.241L298.966 349.857C309.761 411.534 352.017 463.077 410.378 485.758L444.873 499.164C461.373 505.577 475.121 517.542 483.749 533V533C486.664 538.223 488.953 543.771 490.568 549.53L494.976 565.243C504.478 599.112 535.357 622.52 570.534 622.52V622.52L1.0393 622.52C-1.14824 622.52 -2.92159 620.747 -2.92161 618.559V618.559L-2.92161 90.8174Z" fill="url(#paint0_linear_21_55)"/>
<defs>
<linearGradient id="paint0_linear_21_55" x1="-432.654" y1="-568.989" x2="266.112" y2="1448.87" gradientUnits="userSpaceOnUse">
<stop offset="0.0208333" stop-color="#3E7B9A"/>
<stop offset="0.300029" stop-color="#71C9F5"/>
<stop offset="0.625" stop-color="#003550"/>
</linearGradient>
</defs>
</svg>
