<svg width="647" height="1171" viewBox="0 0 647 1171" fill="none" xmlns="http://www.w3.org/2000/svg">
<path d="M234.016 2.31772C446.307 -18.9953 633.204 141.741 643.903 354.831L646.515 406.851C650.376 483.755 620.095 558.443 563.768 610.944V610.944C535.891 636.928 514.039 668.7 499.748 704.028L487.314 734.765C440.239 851.133 342.534 939.587 222.07 974.891L219.226 975.725V975.725C150.069 992.682 92.7936 1040.95 64.3697 1106.24L8.43346 1234.72C-9.2831 1275.41 -53.7939 1297.37 -96.8636 1286.65V1286.65C-122.904 1280.17 -144.752 1262.52 -156.556 1238.42L-169.739 1211.51C-174.638 1201.51 -178.448 1191 -181.1 1180.19L-318.228 620.933C-389.397 330.685 -187.258 44.6116 110.094 14.7589L234.016 2.31772Z" fill="url(#paint0_linear_91_48)"/>
<defs>
<linearGradient id="paint0_linear_91_48" x1="-674.792" y1="1091.97" x2="952.581" y2="529.32" gradientUnits="userSpaceOnUse">
<stop stop-color="#3E7B9A"/>
<stop offset="0.0001" stop-color="#71C9F5"/>
<stop offset="0.625" stop-color="#003550"/>
</linearGradient>
</defs>
</svg>
