<svg width="434" height="1721" viewBox="0 0 434 1721" fill="none" xmlns="http://www.w3.org/2000/svg">
<path d="M-682.816 397.71C-740.05 196.299 -586.638 -3.22657 -377.283 0.336472L-353.564 0.740148C-276.574 2.05045 -204.088 37.2772 -155.486 97.0019V97.0019C-131.433 126.561 -101.2 150.496 -66.9108 167.127L-37.0782 181.596C75.8679 236.377 157.562 339.8 184.7 462.362L185.341 465.256V465.256C197.617 535.395 241.936 595.782 305.167 628.524L317.463 634.892C418.785 687.359 461.679 809.688 415.309 913.942V913.942C410.113 925.624 405.967 937.746 402.919 950.163L375.747 1060.86C369.937 1084.54 367 1108.82 367 1133.19L367 1217.15C367 1312.5 299.883 1394.68 206.449 1413.73V1413.73C130.715 1429.17 70.448 1487.29 51.7321 1562.28V1562.28C0.388007 1768.01 -291.14 1776.06 -349.098 1572.1L-682.816 397.71Z" fill="url(#paint0_linear_54_11)"/>
<defs>
<linearGradient id="paint0_linear_54_11" x1="-396.862" y1="1616.05" x2="367.003" y2="72.8625" gradientUnits="userSpaceOnUse">
<stop stop-color="#3E7B9A"/>
<stop offset="0.0001" stop-color="#71C9F5"/>
<stop offset="0.625" stop-color="#003550"/>
</linearGradient>
</defs>
</svg>
