<svg width="273" height="91" viewBox="0 0 273 91" fill="none" xmlns="http://www.w3.org/2000/svg">
<path d="M66.547 0L44.4983 13.5305V38.8499L66.547 25.3194V0Z" fill="url(#paint0_linear_21_57)"/>
<path d="M18.8417 0L40.7567 13.5305V38.8499L18.8417 25.3194V0Z" fill="url(#paint1_linear_21_57)"/>
<path d="M40.7567 42.8688L6.10352e-05 17.9513V65.6429L40.7567 90.6944V42.8688Z" fill="url(#paint2_linear_21_57)"/>
<path d="M85.6559 18.0853L44.4983 42.8688V90.6944L85.6559 65.5089V18.0853Z" fill="url(#paint3_linear_21_57)"/>
<path d="M107.82 67.2529C109.128 67.2529 110.034 66.5986 110.537 65.29L112.419 66.0005C112.014 66.9966 111.418 67.7388 110.632 68.2271C109.851 68.7104 108.913 68.9521 107.82 68.9521C106.716 68.9521 105.776 68.7422 105 68.3223C104.224 67.8975 103.63 67.2847 103.22 66.4839C102.815 65.6831 102.612 64.7212 102.612 63.5981C102.612 62.4653 102.808 61.5083 103.198 60.7271C103.589 59.9458 104.165 59.3525 104.927 58.9473C105.688 58.5371 106.621 58.332 107.725 58.332C108.935 58.332 109.922 58.5762 110.684 59.0645C111.445 59.5479 111.98 60.2607 112.288 61.2031L110.383 61.7231C110.222 61.2056 109.905 60.7954 109.431 60.4927C108.962 60.1851 108.408 60.0312 107.768 60.0312C106.792 60.0312 106.05 60.334 105.542 60.9395C105.039 61.5449 104.788 62.4312 104.788 63.5981C104.788 64.3892 104.902 65.0557 105.132 65.5977C105.366 66.1396 105.708 66.5522 106.157 66.8354C106.611 67.1138 107.165 67.2529 107.82 67.2529ZM115.733 65.2388C115.733 66.0103 115.875 66.5938 116.158 66.9893C116.446 67.3799 116.854 67.5752 117.381 67.5752C117.743 67.5752 118.038 67.4971 118.268 67.3408C118.502 67.1797 118.666 66.9429 118.758 66.6304L120.699 66.7988C120.138 68.2344 118.998 68.9521 117.279 68.9521C116.087 68.9521 115.172 68.6006 114.532 67.8975C113.893 67.1895 113.573 66.1592 113.573 64.8066C113.573 63.498 113.897 62.4922 114.547 61.7891C115.196 61.0859 116.117 60.7344 117.308 60.7344C118.446 60.7344 119.315 61.1128 119.916 61.8696C120.516 62.6216 120.816 63.7251 120.816 65.1802V65.2388H115.733ZM118.824 63.9497C118.785 63.3101 118.631 62.8315 118.363 62.5142C118.094 62.1919 117.733 62.0308 117.279 62.0308C116.795 62.0308 116.422 62.1992 116.158 62.5361C115.899 62.873 115.763 63.3442 115.748 63.9497H118.824ZM124.592 64.5576V68.8057H122.534V62.6533C122.534 62.2285 122.526 61.8818 122.512 61.6133C122.502 61.3398 122.49 61.0957 122.475 60.8809H124.438C124.448 60.9395 124.46 61.0786 124.475 61.2983C124.489 61.5132 124.502 61.7354 124.511 61.9648C124.526 62.1895 124.533 62.353 124.533 62.4556H124.563C124.841 61.8501 125.19 61.4106 125.61 61.1372C126.03 60.8638 126.53 60.7271 127.111 60.7271C127.951 60.7271 128.596 60.9858 129.045 61.5034C129.494 62.021 129.719 62.7778 129.719 63.7739V68.8057H127.668V64.3599C127.668 63.6616 127.551 63.1392 127.317 62.7925C127.082 62.4458 126.728 62.2725 126.255 62.2725C125.756 62.2725 125.354 62.4873 125.046 62.917C124.743 63.3418 124.592 63.8887 124.592 64.5576ZM135.618 68.6885C135.12 68.8545 134.542 68.9375 133.883 68.9375C133.277 68.9375 132.811 68.7739 132.484 68.4468C132.156 68.1147 131.993 67.6143 131.993 66.9453V62.2725H130.989V60.8809H132.095L132.74 59.0205H134.029V60.8809H135.53V62.2725H134.029V66.3887C134.029 66.7744 134.102 67.0601 134.249 67.2456C134.395 67.4263 134.622 67.5166 134.93 67.5166C135.076 67.5166 135.306 67.4824 135.618 67.4141V68.6885ZM139.057 64.9165V68.8057H136.999V62.7412C136.999 62.3066 136.992 61.9453 136.977 61.6572C136.967 61.3643 136.955 61.1055 136.94 60.8809H138.903C138.913 60.9248 138.923 61.0225 138.932 61.1738C138.942 61.3252 138.952 61.4961 138.962 61.6865C138.971 61.8721 138.979 62.0479 138.984 62.2139C138.993 62.3799 138.998 62.4995 138.998 62.5728H139.028C139.223 62.0259 139.401 61.6328 139.562 61.3936C139.719 61.1641 139.904 60.9956 140.119 60.8882C140.334 60.7808 140.602 60.7271 140.925 60.7271C141.188 60.7271 141.401 60.7637 141.562 60.8369V62.5581C141.235 62.4849 140.942 62.4482 140.683 62.4482C140.17 62.4482 139.77 62.6558 139.482 63.0708C139.199 63.4858 139.057 64.1011 139.057 64.9165ZM150.523 64.8359C150.523 66.1201 150.166 67.1284 149.454 67.8608C148.741 68.5884 147.754 68.9521 146.495 68.9521C145.259 68.9521 144.29 68.5859 143.587 67.8535C142.884 67.1211 142.532 66.1152 142.532 64.8359C142.532 63.5615 142.884 62.5605 143.587 61.833C144.29 61.1006 145.274 60.7344 146.538 60.7344C147.832 60.7344 148.819 61.0884 149.497 61.7964C150.181 62.4995 150.523 63.5127 150.523 64.8359ZM148.37 64.8359C148.37 63.8936 148.216 63.21 147.908 62.7852C147.601 62.3604 147.154 62.1479 146.568 62.1479C145.943 62.1479 145.474 62.3726 145.162 62.8218C144.849 63.2661 144.693 63.9375 144.693 64.8359C144.693 65.7197 144.844 66.3936 145.147 66.8574C145.455 67.3164 145.896 67.5459 146.473 67.5459C147.107 67.5459 147.581 67.3213 147.893 66.8721C148.211 66.418 148.37 65.7393 148.37 64.8359ZM160.886 68.9521C159.939 68.9521 159.138 68.7983 158.484 68.4907C157.83 68.1782 157.334 67.7241 156.997 67.1284C156.66 66.5278 156.492 65.7979 156.492 64.9385V58.4858H158.652V64.77C158.652 65.5854 158.845 66.2056 159.231 66.6304C159.622 67.0503 160.193 67.2603 160.945 67.2603C161.716 67.2603 162.31 67.0405 162.725 66.6011C163.14 66.1567 163.347 65.522 163.347 64.6968V58.4858H165.508V64.8286C165.508 65.6978 165.325 66.4399 164.959 67.0552C164.597 67.6704 164.072 68.1416 163.384 68.4688C162.695 68.791 161.863 68.9521 160.886 68.9521ZM169.686 64.5576V68.8057H167.628V62.6533C167.628 62.2285 167.621 61.8818 167.606 61.6133C167.596 61.3398 167.584 61.0957 167.57 60.8809H169.532C169.542 60.9395 169.554 61.0786 169.569 61.2983C169.584 61.5132 169.596 61.7354 169.606 61.9648C169.62 62.1895 169.628 62.353 169.628 62.4556H169.657C169.935 61.8501 170.284 61.4106 170.704 61.1372C171.124 60.8638 171.625 60.7271 172.206 60.7271C173.046 60.7271 173.69 60.9858 174.139 61.5034C174.589 62.021 174.813 62.7778 174.813 63.7739V68.8057H172.762V64.3599C172.762 63.6616 172.645 63.1392 172.411 62.7925C172.176 62.4458 171.822 62.2725 171.349 62.2725C170.851 62.2725 170.448 62.4873 170.14 62.917C169.838 63.3418 169.686 63.8887 169.686 64.5576ZM179.006 57.9365V59.4526H176.948V57.9365H179.006ZM179.006 60.8809V68.8057H176.948V60.8809H179.006ZM188.502 60.8809L185.58 68.8057H183.119L180.284 60.8809H182.459L183.844 65.312C183.883 65.4341 183.944 65.6489 184.027 65.9565C184.115 66.2593 184.227 66.6548 184.364 67.1431C184.383 67.0747 184.422 66.938 184.481 66.7329C184.544 66.5278 184.613 66.3032 184.686 66.0591C184.759 65.8149 184.823 65.6099 184.876 65.4438L186.349 60.8809H188.502ZM191.472 65.2388C191.472 66.0103 191.613 66.5938 191.896 66.9893C192.185 67.3799 192.592 67.5752 193.12 67.5752C193.481 67.5752 193.776 67.4971 194.006 67.3408C194.24 67.1797 194.404 66.9429 194.497 66.6304L196.438 66.7988C195.876 68.2344 194.736 68.9521 193.017 68.9521C191.826 68.9521 190.91 68.6006 190.271 67.8975C189.631 67.1895 189.311 66.1592 189.311 64.8066C189.311 63.498 189.636 62.4922 190.285 61.7891C190.935 61.0859 191.855 60.7344 193.046 60.7344C194.184 60.7344 195.053 61.1128 195.654 61.8696C196.254 62.6216 196.555 63.7251 196.555 65.1802V65.2388H191.472ZM194.563 63.9497C194.523 63.3101 194.37 62.8315 194.101 62.5142C193.833 62.1919 193.471 62.0308 193.017 62.0308C192.534 62.0308 192.16 62.1992 191.896 62.5361C191.638 62.873 191.501 63.3442 191.486 63.9497H194.563ZM200.33 64.9165V68.8057H198.272V62.7412C198.272 62.3066 198.265 61.9453 198.25 61.6572C198.24 61.3643 198.228 61.1055 198.213 60.8809H200.176C200.186 60.9248 200.196 61.0225 200.206 61.1738C200.215 61.3252 200.225 61.4961 200.235 61.6865C200.245 61.8721 200.252 62.0479 200.257 62.2139C200.267 62.3799 200.272 62.4995 200.272 62.5728H200.301C200.496 62.0259 200.674 61.6328 200.836 61.3936C200.992 61.1641 201.177 60.9956 201.392 60.8882C201.607 60.7808 201.876 60.7271 202.198 60.7271C202.462 60.7271 202.674 60.7637 202.835 60.8369V62.5581C202.508 62.4849 202.215 62.4482 201.956 62.4482C201.443 62.4482 201.043 62.6558 200.755 63.0708C200.472 63.4858 200.33 64.1011 200.33 64.9165ZM210.946 66.4912C210.946 67.2578 210.632 67.8608 210.002 68.3003C209.377 68.7349 208.51 68.9521 207.402 68.9521C206.313 68.9521 205.478 68.7812 204.897 68.4395C204.321 68.0928 203.937 67.5557 203.747 66.8281L205.556 66.5571C205.658 66.9331 205.834 67.1992 206.083 67.3555C206.337 67.5117 206.777 67.5898 207.402 67.5898C207.978 67.5898 208.398 67.5166 208.661 67.3701C208.925 67.2236 209.057 66.9941 209.057 66.6816C209.057 66.4277 208.949 66.2275 208.735 66.0811C208.525 65.9297 208.166 65.8027 207.658 65.7002C207.272 65.6221 206.925 65.5464 206.618 65.4731C206.315 65.3999 206.054 65.3291 205.834 65.2607C205.619 65.1875 205.444 65.1191 205.307 65.0557C204.902 64.8555 204.592 64.5991 204.377 64.2866C204.167 63.9741 204.062 63.5884 204.062 63.1294C204.062 62.3726 204.352 61.7842 204.933 61.3643C205.519 60.9395 206.347 60.7271 207.416 60.7271C208.359 60.7271 209.115 60.9102 209.687 61.2764C210.263 61.6426 210.622 62.1724 210.763 62.8657L208.94 63.0562C208.881 62.7339 208.737 62.4946 208.508 62.3384C208.278 62.1772 207.914 62.0967 207.416 62.0967C206.928 62.0967 206.562 62.1602 206.318 62.2871C206.073 62.4092 205.951 62.6167 205.951 62.9097C205.951 63.1392 206.044 63.3223 206.23 63.459C206.42 63.5908 206.738 63.7007 207.182 63.7886C207.802 63.9155 208.351 64.0474 208.83 64.1841C209.313 64.3159 209.701 64.4746 209.994 64.6602C210.282 64.8457 210.512 65.085 210.683 65.3779C210.859 65.666 210.946 66.0371 210.946 66.4912ZM214.825 57.9365V59.4526H212.766V57.9365H214.825ZM214.825 60.8809V68.8057H212.766V60.8809H214.825ZM220.856 68.6885C220.358 68.8545 219.779 68.9375 219.12 68.9375C218.515 68.9375 218.048 68.7739 217.721 68.4468C217.394 68.1147 217.23 67.6143 217.23 66.9453V62.2725H216.227V60.8809H217.333L217.977 59.0205H219.267V60.8809H220.768V62.2725H219.267V66.3887C219.267 66.7744 219.34 67.0601 219.486 67.2456C219.633 67.4263 219.86 67.5166 220.167 67.5166C220.314 67.5166 220.543 67.4824 220.856 67.4141V68.6885ZM224.009 68.9521C223.242 68.9521 222.644 68.7446 222.214 68.3296C221.785 67.9097 221.57 67.3213 221.57 66.5645C221.57 65.7441 221.836 65.1216 222.368 64.6968C222.905 64.272 223.682 64.0498 224.697 64.0303L226.404 64.001V63.5981C226.404 63.0806 226.313 62.6973 226.133 62.4482C225.952 62.1943 225.657 62.0674 225.247 62.0674C224.866 62.0674 224.585 62.1553 224.404 62.3311C224.229 62.502 224.119 62.7876 224.075 63.188L221.929 63.0854C222.197 61.5181 223.333 60.7344 225.334 60.7344C226.335 60.7344 227.107 60.981 227.649 61.4741C228.191 61.9673 228.462 62.668 228.462 63.5762V66.4619C228.462 66.9062 228.511 67.2139 228.608 67.3848C228.711 67.5508 228.879 67.6338 229.114 67.6338C229.27 67.6338 229.421 67.6191 229.568 67.5898V68.7031C229.314 68.7666 229.097 68.813 228.916 68.8423C228.735 68.8765 228.513 68.8936 228.25 68.8936C227.732 68.8936 227.349 68.7666 227.1 68.5127C226.855 68.2588 226.709 67.8853 226.66 67.3921H226.616C226.328 67.9097 225.967 68.3003 225.532 68.564C225.098 68.8228 224.59 68.9521 224.009 68.9521ZM226.404 65.1362L225.349 65.1509C224.866 65.1753 224.526 65.2266 224.331 65.3047C224.131 65.3926 223.977 65.5244 223.87 65.7002C223.767 65.876 223.716 66.1104 223.716 66.4033C223.716 66.7793 223.801 67.0601 223.972 67.2456C224.148 67.4263 224.38 67.5166 224.668 67.5166C224.99 67.5166 225.286 67.4287 225.554 67.2529C225.818 67.0771 226.025 66.8354 226.177 66.5278C226.328 66.2153 226.404 65.8857 226.404 65.5391V65.1362ZM227.671 58.1196L225.181 60.1411H223.936V59.9141L225.781 57.8047H227.671V58.1196ZM232.794 64.9165V68.8057H230.736V62.7412C230.736 62.3066 230.729 61.9453 230.714 61.6572C230.704 61.3643 230.692 61.1055 230.677 60.8809H232.64C232.65 60.9248 232.66 61.0225 232.67 61.1738C232.679 61.3252 232.689 61.4961 232.699 61.6865C232.709 61.8721 232.716 62.0479 232.721 62.2139C232.731 62.3799 232.735 62.4995 232.735 62.5728H232.765C232.96 62.0259 233.138 61.6328 233.299 61.3936C233.456 61.1641 233.641 60.9956 233.856 60.8882C234.071 60.7808 234.339 60.7271 234.662 60.7271C234.925 60.7271 235.138 60.7637 235.299 60.8369V62.5581C234.972 62.4849 234.679 62.4482 234.42 62.4482C233.907 62.4482 233.507 62.6558 233.219 63.0708C232.936 63.4858 232.794 64.1011 232.794 64.9165ZM238.789 57.9365V59.4526H236.731V57.9365H238.789ZM238.789 60.8809V68.8057H236.731V60.8809H238.789ZM248.585 64.8359C248.585 66.1201 248.228 67.1284 247.515 67.8608C246.803 68.5884 245.816 68.9521 244.556 68.9521C243.321 68.9521 242.352 68.5859 241.649 67.8535C240.946 67.1211 240.594 66.1152 240.594 64.8359C240.594 63.5615 240.946 62.5605 241.649 61.833C242.352 61.1006 243.336 60.7344 244.6 60.7344C245.894 60.7344 246.881 61.0884 247.559 61.7964C248.243 62.4995 248.585 63.5127 248.585 64.8359ZM246.431 64.8359C246.431 63.8936 246.278 63.21 245.97 62.7852C245.662 62.3604 245.216 62.1479 244.63 62.1479C244.005 62.1479 243.536 62.3726 243.223 62.8218C242.911 63.2661 242.755 63.9375 242.755 64.8359C242.755 65.7197 242.906 66.3936 243.209 66.8574C243.516 67.3164 243.958 67.5459 244.534 67.5459C245.169 67.5459 245.643 67.3213 245.955 66.8721C246.273 66.418 246.431 65.7393 246.431 64.8359Z" fill="url(#paint4_linear_21_57)"/>
<path d="M113.493 42.3086C115.761 42.3086 117.331 41.1745 118.203 38.9062L121.466 40.1377C120.763 41.8643 119.731 43.1507 118.368 43.9971C117.014 44.835 115.389 45.2539 113.493 45.2539C111.58 45.2539 109.951 44.89 108.605 44.1621C107.26 43.4258 106.231 42.3636 105.52 40.9756C104.818 39.5876 104.467 37.9202 104.467 35.9736C104.467 34.0101 104.805 32.3512 105.482 30.9971C106.159 29.6429 107.158 28.6146 108.478 27.9121C109.799 27.2012 111.415 26.8457 113.328 26.8457C115.427 26.8457 117.137 27.2689 118.457 28.1152C119.777 28.9531 120.704 30.1888 121.237 31.8223L117.936 32.7236C117.657 31.8265 117.107 31.1156 116.286 30.5908C115.473 30.0576 114.513 29.791 113.404 29.791C111.711 29.791 110.425 30.3158 109.545 31.3652C108.673 32.4147 108.237 33.9508 108.237 35.9736C108.237 37.3447 108.436 38.5 108.834 39.4395C109.24 40.3789 109.832 41.0941 110.611 41.585C111.398 42.0674 112.359 42.3086 113.493 42.3086ZM127.439 45.2539C126.11 45.2539 125.073 44.8942 124.328 44.1748C123.583 43.4469 123.211 42.4271 123.211 41.1152C123.211 39.6934 123.672 38.6143 124.595 37.8779C125.526 37.1416 126.871 36.7565 128.632 36.7227L131.59 36.6719V35.9736C131.59 35.0765 131.433 34.4121 131.12 33.9805C130.807 33.5404 130.295 33.3203 129.584 33.3203C128.924 33.3203 128.437 33.4727 128.124 33.7773C127.819 34.0736 127.629 34.5687 127.553 35.2627L123.833 35.085C124.299 32.3682 126.266 31.0098 129.736 31.0098C131.471 31.0098 132.809 31.4372 133.748 32.292C134.688 33.1468 135.157 34.3613 135.157 35.9355V40.9375C135.157 41.7077 135.242 42.2409 135.411 42.5371C135.589 42.8249 135.881 42.9688 136.287 42.9688C136.558 42.9688 136.82 42.9434 137.074 42.8926V44.8223C136.634 44.9323 136.258 45.0127 135.944 45.0635C135.631 45.1227 135.246 45.1523 134.789 45.1523C133.892 45.1523 133.228 44.9323 132.796 44.4922C132.373 44.0521 132.119 43.4046 132.034 42.5498H131.958C131.459 43.4469 130.832 44.124 130.079 44.5811C129.326 45.0296 128.446 45.2539 127.439 45.2539ZM131.59 38.6396L129.762 38.665C128.924 38.7074 128.336 38.7962 127.997 38.9316C127.65 39.084 127.383 39.3125 127.197 39.6172C127.02 39.9219 126.931 40.3281 126.931 40.8359C126.931 41.4876 127.079 41.9743 127.375 42.2959C127.68 42.609 128.082 42.7656 128.581 42.7656C129.14 42.7656 129.652 42.6133 130.117 42.3086C130.574 42.0039 130.934 41.585 131.196 41.0518C131.459 40.5101 131.59 39.9388 131.59 39.3379V38.6396ZM145.523 44.7969C144.659 45.0846 143.657 45.2285 142.514 45.2285C141.464 45.2285 140.656 44.945 140.089 44.3779C139.522 43.8024 139.239 42.9349 139.239 41.7754V33.6758H137.499V31.2637H139.416L140.533 28.0391H142.768V31.2637H145.37V33.6758H142.768V40.8105C142.768 41.4792 142.895 41.9743 143.149 42.2959C143.403 42.609 143.796 42.7656 144.329 42.7656C144.583 42.7656 144.981 42.7064 145.523 42.5879V44.7969ZM160.966 38.1191C160.966 40.3451 160.348 42.0928 159.113 43.3623C157.877 44.6234 156.167 45.2539 153.984 45.2539C151.843 45.2539 150.163 44.6191 148.944 43.3496C147.725 42.0801 147.116 40.3366 147.116 38.1191C147.116 35.9102 147.725 34.1751 148.944 32.9141C150.163 31.6445 151.868 31.0098 154.06 31.0098C156.303 31.0098 158.013 31.6234 159.189 32.8506C160.374 34.0693 160.966 35.8255 160.966 38.1191ZM157.234 38.1191C157.234 36.4857 156.967 35.3008 156.434 34.5645C155.901 33.8281 155.126 33.46 154.111 33.46C153.028 33.46 152.215 33.8493 151.673 34.6279C151.132 35.3981 150.861 36.5618 150.861 38.1191C150.861 39.651 151.123 40.819 151.648 41.623C152.181 42.4186 152.947 42.8164 153.946 42.8164C155.046 42.8164 155.867 42.4271 156.409 41.6484C156.959 40.8613 157.234 39.6849 157.234 38.1191ZM158.478 26.4775L154.162 29.9814H152.003V29.5879L155.203 25.9316H158.478V26.4775ZM167.637 26.1602V45H164.07V26.1602H167.637ZM175.134 26.1602V28.7881H171.566V26.1602H175.134ZM175.134 31.2637V45H171.566V31.2637H175.134ZM184.788 45.2539C182.706 45.2539 181.098 44.6361 179.964 43.4004C178.83 42.1562 178.263 40.4255 178.263 38.208C178.263 35.9398 178.834 34.1751 179.977 32.9141C181.119 31.6445 182.74 31.0098 184.839 31.0098C186.456 31.0098 187.793 31.416 188.851 32.2285C189.909 33.041 190.573 34.1624 190.844 35.5928L187.251 35.7705C187.15 35.068 186.896 34.5094 186.489 34.0947C186.083 33.6715 185.508 33.46 184.763 33.46C183.84 33.46 183.151 33.8451 182.694 34.6152C182.237 35.377 182.008 36.528 182.008 38.0684C182.008 39.651 182.241 40.8402 182.706 41.6357C183.18 42.4229 183.883 42.8164 184.814 42.8164C185.491 42.8164 186.058 42.6048 186.515 42.1816C186.972 41.75 187.255 41.111 187.365 40.2646L190.946 40.4297C190.819 41.3945 190.476 42.2409 189.917 42.9688C189.367 43.6882 188.652 44.251 187.772 44.6572C186.892 45.055 185.897 45.2539 184.788 45.2539ZM196.969 45.2539C195.64 45.2539 194.604 44.8942 193.859 44.1748C193.114 43.4469 192.742 42.4271 192.742 41.1152C192.742 39.6934 193.203 38.6143 194.125 37.8779C195.056 37.1416 196.402 36.7565 198.163 36.7227L201.121 36.6719V35.9736C201.121 35.0765 200.964 34.4121 200.651 33.9805C200.338 33.5404 199.826 33.3203 199.115 33.3203C198.455 33.3203 197.968 33.4727 197.655 33.7773C197.35 34.0736 197.16 34.5687 197.083 35.2627L193.364 35.085C193.829 32.3682 195.797 31.0098 199.267 31.0098C201.002 31.0098 202.339 31.4372 203.279 32.292C204.218 33.1468 204.688 34.3613 204.688 35.9355V40.9375C204.688 41.7077 204.773 42.2409 204.942 42.5371C205.12 42.8249 205.412 42.9688 205.818 42.9688C206.089 42.9688 206.351 42.9434 206.605 42.8926V44.8223C206.165 44.9323 205.788 45.0127 205.475 45.0635C205.162 45.1227 204.777 45.1523 204.32 45.1523C203.423 45.1523 202.758 44.9323 202.327 44.4922C201.903 44.0521 201.65 43.4046 201.565 42.5498H201.489C200.989 43.4469 200.363 44.124 199.61 44.5811C198.857 45.0296 197.976 45.2539 196.969 45.2539ZM201.121 38.6396L199.292 38.665C198.455 38.7074 197.866 38.7962 197.528 38.9316C197.181 39.084 196.914 39.3125 196.728 39.6172C196.55 39.9219 196.461 40.3281 196.461 40.8359C196.461 41.4876 196.61 41.9743 196.906 42.2959C197.21 42.609 197.612 42.7656 198.112 42.7656C198.67 42.7656 199.182 42.6133 199.648 42.3086C200.105 42.0039 200.465 41.585 200.727 41.0518C200.989 40.5101 201.121 39.9388 201.121 39.3379V38.6396ZM230.535 39.8457C230.535 41.5977 229.883 42.9391 228.58 43.8701C227.285 44.7926 225.381 45.2539 222.867 45.2539C218.339 45.2539 215.703 43.6162 214.958 40.3408L218.576 39.7441C218.822 40.6921 219.3 41.3818 220.011 41.8135C220.722 42.2367 221.708 42.4482 222.969 42.4482C224.281 42.4482 225.262 42.2493 225.914 41.8516C226.566 41.4538 226.892 40.8571 226.892 40.0615C226.892 39.5537 226.743 39.1348 226.447 38.8047C226.151 38.4746 225.728 38.1995 225.178 37.9795C224.907 37.8695 224.509 37.751 223.984 37.624C223.46 37.4886 222.808 37.3405 222.029 37.1797C221.132 36.9681 220.43 36.7904 219.922 36.6465C219.414 36.4941 219.008 36.3503 218.703 36.2148C218.398 36.071 218.102 35.9144 217.814 35.7451C217.18 35.3643 216.685 34.8564 216.329 34.2217C215.974 33.5869 215.796 32.7956 215.796 31.8477C215.796 30.2311 216.401 28.9954 217.611 28.1406C218.83 27.2773 220.599 26.8457 222.918 26.8457C225.135 26.8457 226.798 27.1927 227.907 27.8867C229.024 28.5807 229.744 29.7275 230.065 31.3271L226.435 31.8223C226.248 31.0521 225.867 30.4723 225.292 30.083C224.725 29.6937 223.908 29.499 222.842 29.499C221.708 29.499 220.857 29.6768 220.29 30.0322C219.723 30.3877 219.439 30.9209 219.439 31.6318C219.439 32.0973 219.558 32.4782 219.795 32.7744C220.04 33.0706 220.4 33.3245 220.874 33.5361C221.323 33.7393 222.283 33.9974 223.756 34.3105C224.611 34.4967 225.347 34.6745 225.965 34.8438C226.583 35.0046 227.078 35.1611 227.45 35.3135C227.823 35.4743 228.153 35.6436 228.44 35.8213C228.737 35.999 228.991 36.1895 229.202 36.3926C229.634 36.8073 229.964 37.3024 230.192 37.8779C230.421 38.445 230.535 39.1009 230.535 39.8457ZM241.904 42.3086C244.172 42.3086 245.742 41.1745 246.613 38.9062L249.876 40.1377C249.174 41.8643 248.141 43.1507 246.779 43.9971C245.424 44.835 243.799 45.2539 241.904 45.2539C239.991 45.2539 238.362 44.89 237.016 44.1621C235.67 43.4258 234.642 42.3636 233.931 40.9756C233.228 39.5876 232.877 37.9202 232.877 35.9736C232.877 34.0101 233.216 32.3512 233.893 30.9971C234.57 29.6429 235.569 28.6146 236.889 27.9121C238.209 27.2012 239.826 26.8457 241.738 26.8457C243.837 26.8457 245.547 27.2689 246.867 28.1152C248.188 28.9531 249.114 30.1888 249.648 31.8223L246.347 32.7236C246.068 31.8265 245.517 31.1156 244.696 30.5908C243.884 30.0576 242.923 29.791 241.815 29.791C240.122 29.791 238.835 30.3158 237.955 31.3652C237.084 32.4147 236.648 33.9508 236.648 35.9736C236.648 37.3447 236.847 38.5 237.244 39.4395C237.651 40.3789 238.243 41.0941 239.022 41.585C239.809 42.0674 240.769 42.3086 241.904 42.3086Z" fill="url(#paint5_linear_21_57)"/>
<rect x="102" y="50" width="153" height="1" rx="0.5" fill="url(#paint6_linear_21_57)"/>
<defs>
<linearGradient id="paint0_linear_21_57" x1="21.5411" y1="141.759" x2="106.427" y2="38.6289" gradientUnits="userSpaceOnUse">
<stop stop-color="#3E7B9A"/>
<stop offset="0.0001" stop-color="#71C9F5"/>
<stop offset="0.625" stop-color="#003550"/>
</linearGradient>
<linearGradient id="paint1_linear_21_57" x1="21.5411" y1="141.759" x2="106.427" y2="38.6289" gradientUnits="userSpaceOnUse">
<stop stop-color="#3E7B9A"/>
<stop offset="0.0001" stop-color="#71C9F5"/>
<stop offset="0.625" stop-color="#003550"/>
</linearGradient>
<linearGradient id="paint2_linear_21_57" x1="21.5411" y1="141.759" x2="106.427" y2="38.6289" gradientUnits="userSpaceOnUse">
<stop stop-color="#3E7B9A"/>
<stop offset="0.0001" stop-color="#71C9F5"/>
<stop offset="0.625" stop-color="#003550"/>
</linearGradient>
<linearGradient id="paint3_linear_21_57" x1="21.5411" y1="141.759" x2="106.427" y2="38.6289" gradientUnits="userSpaceOnUse">
<stop stop-color="#3E7B9A"/>
<stop offset="0.0001" stop-color="#71C9F5"/>
<stop offset="0.625" stop-color="#003550"/>
</linearGradient>
<linearGradient id="paint4_linear_21_57" x1="127.17" y1="92.1521" x2="132.437" y2="42.2497" gradientUnits="userSpaceOnUse">
<stop stop-color="#3E7B9A"/>
<stop offset="0.0001" stop-color="#71C9F5"/>
<stop offset="0.625" stop-color="#003550"/>
</linearGradient>
<linearGradient id="paint5_linear_21_57" x1="138.231" y1="80.6477" x2="154.295" y2="3.89461" gradientUnits="userSpaceOnUse">
<stop stop-color="#3E7B9A"/>
<stop offset="0.0001" stop-color="#71C9F5"/>
<stop offset="0.625" stop-color="#003550"/>
</linearGradient>
<linearGradient id="paint6_linear_21_57" x1="140.477" y1="51.563" x2="140.487" y2="49.6556" gradientUnits="userSpaceOnUse">
<stop stop-color="#3E7B9A"/>
<stop offset="0.0001" stop-color="#71C9F5"/>
<stop offset="0.625" stop-color="#003550"/>
</linearGradient>
</defs>
</svg>
